<svg width="23" height="22" viewBox="0 0 23 22" fill="none" xmlns="http://www.w3.org/2000/svg">
<path d="M13.6929 0.351856C13.9779 0.0783102 14.4404 0.0782556 14.7254 0.351856L16.901 2.44156C17.1859 2.71527 17.1859 3.15948 16.901 3.4333C16.286 4.02405 16.2861 4.9856 16.901 5.57644C17.5161 6.16727 18.5171 6.16724 19.1322 5.57644C19.4171 5.30291 19.8797 5.30288 20.1647 5.57644L22.3402 7.66614C22.6252 7.93986 22.6251 8.38407 22.3402 8.65789L9.01363 21.4586C8.72859 21.7322 8.26614 21.7323 7.98114 21.4586L5.80558 19.3689C5.52077 19.0951 5.52078 18.6508 5.80558 18.3771C6.42068 17.7863 6.42068 16.8248 5.80558 16.234C5.19046 15.6434 4.18938 15.6433 3.57439 16.234C3.28935 16.5076 2.8269 16.5077 2.5419 16.234L0.36634 14.1443C0.0814893 13.8705 0.0815265 13.4263 0.36634 13.1525L13.6929 0.351856ZM3.12294 14.8086C4.29033 14.1326 5.83148 14.2756 6.83807 15.2422C7.84462 16.2091 7.99322 17.6893 7.28952 18.8108L8.49808 19.9716L11.4096 17.175L10.294 16.1034C10.0091 15.8297 10.0086 15.3862 10.2933 15.1123C10.5783 14.8386 11.0408 14.8385 11.3258 15.1123L12.4414 16.1839L20.7922 8.16269L19.5836 7.00182C18.4162 7.6778 16.875 7.53502 15.8685 6.56819C14.8621 5.6013 14.7133 4.12102 15.417 2.99967L14.2092 1.83947L5.8584 9.8607L6.974 10.9323C7.25902 11.206 7.25902 11.6502 6.974 11.924C6.68895 12.1975 6.22717 12.1971 5.94221 11.9233L4.82662 10.8518L1.91508 13.6484L3.12294 14.8086Z" fill="#181725" stroke="#181725" stroke-width="0.3"/>
<path d="M7.57337 12.4995C7.85833 12.2257 8.32092 12.2257 8.60586 12.4995L9.69329 13.544C9.97825 13.8177 9.97825 14.262 9.69329 14.5357C9.40833 14.8094 8.94578 14.8094 8.6608 14.5357L7.57337 13.4912C7.28846 13.2175 7.28843 12.7732 7.57337 12.4995Z" fill="#181725" stroke="#181725" stroke-width="0.3"/>
</svg>
